<svg xmlns="http://www.w3.org/2000/svg" viewBox="0 0 1600 900" role="img" aria-labelledby="title desc">
  <title id="title">BIM e GIS - paisagem costeira ao pôr do sol com ponte e cidade</title>
  <desc id="desc">Ilustração vetorial com casas na encosta, ponte suspensa ao entardecer e palavras BIM e GIS junto a modelos de edifícios.</desc>
  <defs>
    <linearGradient id="sky" x1="0" x2="0" y1="0" y2="1">
      <stop offset="0%" stop-color="#f28b72"/>
      <stop offset="55%" stop-color="#2b4b68"/>
    </linearGradient>
    <linearGradient id="water" x1="0" x2="0" y1="0" y2="1">
      <stop offset="0%" stop-color="#1a2d3f"/>
      <stop offset="100%" stop-color="#0d1b2a"/>
    </linearGradient>
    <linearGradient id="sun" x1="0" x2="0" y1="0" y2="1">
      <stop offset="0%" stop-color="#fbd39f" stop-opacity="0.95"/>
      <stop offset="100%" stop-color="#f7a95a" stop-opacity="0.95"/>
    </linearGradient>
    <linearGradient id="shore" x1="0" x2="0" y1="0" y2="1">
      <stop offset="0%" stop-color="#22405a"/>
      <stop offset="100%" stop-color="#142a3d"/>
    </linearGradient>
  </defs>

  <rect width="1600" height="560" fill="url(#sky)"/>
  <rect y="480" width="1600" height="420" fill="url(#water)"/>

  <circle cx="1140" cy="340" r="140" fill="url(#sun)" opacity="0.92"/>

  <path d="M0 460 Q180 430 360 460 T720 470 T1080 455 T1600 470 V560 H0 Z" fill="#1d3147" opacity="0.85"/>
  <path d="M0 500 Q220 470 440 500 T880 510 T1320 495 T1600 515 V560 H0 Z" fill="url(#shore)" opacity="0.9"/>

  <path d="M1030 410 H1500" stroke="#d8b38e" stroke-width="10" stroke-linecap="round" opacity="0.85"/>
  <path d="M1030 410 C1120 350 1290 350 1500 410" stroke="#e9c49c" stroke-width="6" fill="none" opacity="0.8"/>
  <g stroke="#e9c49c" stroke-width="4" fill="none" opacity="0.8">
    <path d="M1080 410 V300"/>
    <path d="M1180 410 V270"/>
    <path d="M1280 410 V260"/>
    <path d="M1380 410 V270"/>
    <path d="M1480 410 V300"/>
  </g>

  <g transform="translate(60 270)">
    <path d="M0 140 Q90 30 210 60 Q310 80 420 30 Q510 10 620 80 L620 220 H0 Z" fill="#1f2f45" opacity="0.95"/>
    <g fill="#ed6f5d">
      <rect x="50" y="110" width="70" height="40" rx="4"/>
      <rect x="140" y="80" width="68" height="50" rx="4"/>
      <rect x="230" y="120" width="62" height="42" rx="4"/>
      <rect x="310" y="70" width="68" height="48" rx="4"/>
      <rect x="400" y="100" width="62" height="44" rx="4"/>
      <rect x="480" y="60" width="70" height="60" rx="4"/>
    </g>
    <g fill="#f7c7b2" opacity="0.9">
      <rect x="60" y="96" width="24" height="12" rx="2"/>
      <rect x="160" y="72" width="24" height="12" rx="2"/>
      <rect x="244" y="108" width="24" height="12" rx="2"/>
      <rect x="330" y="62" width="24" height="12" rx="2"/>
      <rect x="414" y="90" width="24" height="12" rx="2"/>
      <rect x="500" y="48" width="24" height="12" rx="2"/>
    </g>
  </g>

  <g transform="translate(760 560)">
    <path d="M0 120 Q90 70 180 95 Q260 115 350 85 Q430 60 520 80 Q600 98 700 80 L700 200 H0 Z" fill="#102232" opacity="0.9"/>
    <g fill="#ed6f5d">
      <rect x="20" y="90" width="140" height="70" rx="6"/>
      <rect x="180" y="60" width="120" height="80" rx="6"/>
      <rect x="330" y="75" width="130" height="70" rx="6"/>
      <rect x="490" y="60" width="140" height="78" rx="6"/>
      <rect x="120" y="130" width="120" height="60" rx="6"/>
      <rect x="320" y="130" width="120" height="60" rx="6"/>
    </g>
    <g fill="#f7c7b2" opacity="0.9">
      <rect x="46" y="82" width="36" height="14" rx="3"/>
      <rect x="210" y="52" width="36" height="14" rx="3"/>
      <rect x="366" y="67" width="36" height="14" rx="3"/>
      <rect x="526" y="52" width="36" height="14" rx="3"/>
      <rect x="150" y="122" width="32" height="12" rx="3"/>
      <rect x="348" y="122" width="32" height="12" rx="3"/>
    </g>
    <rect x="-40" y="190" width="800" height="18" rx="9" fill="#27405a" opacity="0.75"/>
    <rect x="-20" y="208" width="760" height="12" rx="6" fill="#2f4c6b" opacity="0.65"/>
    <g fill="#3c5b7b" opacity="0.65" transform="translate(-20 208)">
      <rect x="0" width="8" height="44" rx="3"/>
      <rect x="60" width="8" height="44" rx="3"/>
      <rect x="120" width="8" height="44" rx="3"/>
      <rect x="180" width="8" height="44" rx="3"/>
      <rect x="240" width="8" height="44" rx="3"/>
      <rect x="300" width="8" height="44" rx="3"/>
      <rect x="360" width="8" height="44" rx="3"/>
      <rect x="420" width="8" height="44" rx="3"/>
      <rect x="480" width="8" height="44" rx="3"/>
      <rect x="540" width="8" height="44" rx="3"/>
      <rect x="600" width="8" height="44" rx="3"/>
      <rect x="660" width="8" height="44" rx="3"/>
      <rect x="720" width="8" height="44" rx="3"/>
    </g>
  </g>

  <text x="220" y="540" font-family="'Poppins', 'Segoe UI', sans-serif" font-size="96" font-weight="600" fill="#f7c7b2" opacity="0.9">BIM</text>
  <text x="1220" y="720" font-family="'Poppins', 'Segoe UI', sans-serif" font-size="96" font-weight="600" fill="#f7c7b2" opacity="0.9">GIS</text>
</svg>
